<svg xmlns="http://www.w3.org/2000/svg" width="48" height="48" viewBox="0 0 48 48" fill="none">
<rect width="48" height="48" rx="24" fill="#16191E"/>
<path fill-rule="evenodd" clip-rule="evenodd" d="M7.57811 31.3729L21.8866 35.2005C21.8673 36.2177 21.8973 37.2353 21.9766 38.2497L30.9105 40.6389C28.2608 41.7325 25.388 42.1773 22.5316 41.9363L22.2616 41.9123L22.1956 41.9063L22.0696 41.8928L21.9286 41.8778C21.85 41.8683 21.7715 41.8583 21.6931 41.8478L21.5326 41.8268L21.3676 41.8028C21.2072 41.7795 21.0472 41.754 20.8876 41.7263L20.8246 41.7143L20.7121 41.6948L20.5516 41.6648L20.4466 41.6423L20.3071 41.6138L20.1946 41.5898L20.0521 41.5598L19.9066 41.5253L19.7656 41.4923L19.6636 41.4668L19.5316 41.4338L19.3966 41.3978L19.2541 41.3603L19.1311 41.3258L18.9676 41.2808L18.8746 41.2508L18.7486 41.2133L18.6091 41.1713L18.4516 41.1204L18.3646 41.0919L18.2446 41.0529L18.1096 41.0064L18.0106 40.9704C17.9885 40.963 17.9665 40.9555 17.9446 40.9479L17.8426 40.9104L17.6911 40.8549L17.6056 40.8219L17.4856 40.7769L17.3551 40.7244L17.2231 40.6719L17.1046 40.6239L16.9621 40.5639L16.8676 40.5219L16.7731 40.4814C16.7525 40.4725 16.732 40.4635 16.7116 40.4544L16.6126 40.4094L16.4581 40.3389L16.3801 40.3029L16.2361 40.2339L16.1431 40.189L16.0171 40.129L15.8881 40.063L15.7486 39.9925L15.6706 39.952L15.5161 39.8695L15.4306 39.8245L15.3436 39.7765C15.3205 39.7636 15.2975 39.7506 15.2746 39.7375L15.1336 39.658L15.0436 39.607L14.9671 39.562L14.8591 39.5005L14.7361 39.4255L14.5966 39.3415L14.5186 39.2935L14.3926 39.2141L14.3011 39.1556L14.1826 39.0806L14.0776 39.0101L13.9981 38.9576C13.971 38.9397 13.944 38.9217 13.9171 38.9036L13.8511 38.8586L13.7851 38.8136C13.765 38.7997 13.745 38.7857 13.7251 38.7716L13.6396 38.7116L13.5256 38.6306L13.4221 38.5556L13.3111 38.4746L13.2271 38.4116L13.1131 38.3261L12.9991 38.2377L12.8701 38.1372L12.8026 38.0847L12.7066 38.0067L12.5956 37.9167L12.4621 37.8072L12.3931 37.7487L12.3241 37.6902C12.3025 37.6718 12.281 37.6533 12.2596 37.6347L12.1921 37.5747L12.1006 37.4952L11.9956 37.4022L11.8936 37.3122L11.8006 37.2253L11.7001 37.1323L11.6206 37.0573L11.4886 36.9313C11.4388 36.8831 11.3893 36.8346 11.3401 36.7858L11.2966 36.7438L11.2351 36.6808L11.1316 36.5758L11.0566 36.4993L10.9816 36.4198C10.8959 36.332 10.8119 36.2424 10.7296 36.1514L10.6096 36.0194L10.5166 35.9144L10.4101 35.7944L10.3471 35.7209L10.2676 35.6279L10.1806 35.5259L10.1116 35.4419C10.098 35.4255 10.0845 35.409 10.0711 35.3924L10.0036 35.31L9.9046 35.187L9.8431 35.109L9.7681 35.013L9.7381 34.9755C8.87983 33.8631 8.15489 32.654 7.57811 31.3729ZM6.04811 22.6828L23.0776 27.2378C22.7925 28.2307 22.5577 29.2374 22.3741 30.254L38.5995 34.5945C37.7934 35.6981 36.865 36.7069 35.832 37.6017L6.98561 29.8835L6.96161 29.8145L6.90911 29.6585C6.88359 29.5822 6.85859 29.5057 6.83411 29.4291L6.82361 29.3946C6.70815 29.0276 6.6046 28.6569 6.51311 28.2832L6.46811 28.0942L6.44111 27.9742L6.40961 27.8287L6.38261 27.7072L6.35561 27.5723L6.33011 27.4463L6.30311 27.3053C6.26411 27.0938 6.22811 26.8808 6.19661 26.6664L6.17111 26.4894L6.15461 26.3649L6.13511 26.2119C6.12507 26.1315 6.11557 26.051 6.10661 25.9704L6.09911 25.8999C5.98704 24.8312 5.96997 23.7546 6.04811 22.6828ZM8.4376 14.9586L26.3595 19.7521C25.8076 20.6595 25.3021 21.5984 24.8446 22.5643L41.787 27.0968C41.574 28.3267 41.235 29.5146 40.785 30.6439L23.4601 26.0094L6.18611 21.3899L6.20861 21.2399L6.22061 21.1664L6.23561 21.0659L6.25811 20.9354L6.28511 20.7885C6.32411 20.5665 6.36911 20.346 6.41711 20.1255L6.45911 19.9396L6.48911 19.8121L6.52511 19.6666C6.55811 19.5316 6.59261 19.3966 6.63011 19.2646L6.67211 19.1116L6.70661 18.9872L6.75161 18.8372L6.78911 18.7142L6.83411 18.5702L6.87311 18.4472L6.91961 18.3047C7.30804 17.1397 7.81573 16.0178 8.4346 14.9571L8.4376 14.9586ZM15.1006 8.35926L32.028 12.8858C31.1348 13.6965 30.2893 14.5583 29.496 15.467L41.2305 18.6062C41.631 19.8841 41.8935 21.2219 42 22.6033L9.1591 13.8202L9.2266 13.7227L9.2671 13.6627L9.3271 13.5802L9.3961 13.4827L9.4786 13.3687L9.5596 13.2607L9.6556 13.1318L9.7306 13.0343L9.8161 12.9248L9.8986 12.8198L9.9886 12.7088L10.0711 12.6053L10.1686 12.4898L10.2496 12.3908L10.3486 12.2753L10.4281 12.1854L10.5361 12.0624L10.6156 11.9724L10.7161 11.8614L10.7971 11.7744L10.9066 11.6574L10.9936 11.5674L11.0881 11.4669L11.3401 11.212L11.4901 11.065L11.5786 10.981L11.6926 10.8745C12.7264 9.90579 13.8702 9.06161 15.1006 8.35926ZM24.0256 6.0015H24.1711L24.2941 6.003L24.3976 6.0045L24.4786 6.0075L24.5806 6.0105L24.6496 6.012L24.7636 6.0165L24.8341 6.0195L24.9241 6.024L25.0051 6.027L25.1356 6.0345L25.2931 6.045L25.5091 6.06149L25.6411 6.07199L25.707 6.07799L25.8226 6.08999L25.9455 6.10199L26.016 6.10949L26.169 6.12749L26.244 6.13649L26.406 6.15748L26.5275 6.17248L26.5905 6.18148L26.688 6.19648L26.9985 6.24447L27.1035 6.26247L27.201 6.27897L27.411 6.31797L27.549 6.34496L27.714 6.37796L27.783 6.39296L27.8955 6.41696L27.957 6.43196L28.05 6.45145L28.113 6.46645L28.2105 6.48895L28.284 6.50695L28.3905 6.53244L28.5345 6.56844L28.7025 6.61344L28.872 6.65843L29.0415 6.70643L29.1165 6.72892L29.2215 6.75892L29.3385 6.79492L29.448 6.82941L29.523 6.85341L29.598 6.87741L29.712 6.91491L29.8605 6.9644L30.0135 7.01839L30.0855 7.04389L30.1815 7.07839L30.321 7.12938L30.486 7.19088L30.66 7.25837L30.81 7.31836L30.8805 7.34836L30.9705 7.38436L31.032 7.41135L31.1265 7.45035L31.1865 7.47735L31.272 7.51484L31.437 7.58684L31.587 7.65583L31.698 7.70832L31.8105 7.76232L31.9005 7.80431L32.0385 7.87331L32.175 7.9408L32.328 8.01879L32.4075 8.06079L32.481 8.09978L32.55 8.13578L32.64 8.18527L32.7015 8.21827L32.7795 8.26177L32.9115 8.33676L33.0705 8.42675L33.201 8.50324L33.2865 8.55423L33.366 8.60223L33.51 8.69072L33.642 8.77321L33.789 8.8662L33.843 8.9022L33.939 8.96369L34.065 9.04768L34.125 9.08818L34.218 9.15117L34.311 9.21567L34.3455 9.24116C34.4265 9.29666 34.5075 9.35365 34.587 9.41215L34.7115 9.50214L34.809 9.57413L34.893 9.63862L35.022 9.73611L35.145 9.8321L35.205 9.8771L35.28 9.93859L35.409 10.0421L35.5275 10.1396L35.655 10.2461C36.723 11.146 37.6845 12.1704 38.5185 13.2922L16.8331 7.49235L16.9261 7.45185L17.0236 7.40985L17.1451 7.35886L17.2741 7.30636C17.4436 7.23887 17.6146 7.17138 17.7856 7.10988L17.9296 7.05739L18.0691 7.0079L18.1951 6.9629L18.3391 6.9164C18.4696 6.87141 18.6031 6.82941 18.7351 6.78892L18.8716 6.74842L19.0006 6.71093L19.1536 6.66593L19.2811 6.63143L19.4311 6.59244L19.5601 6.55644L19.6951 6.52195L19.8316 6.48895L19.9741 6.45595L20.1091 6.42596L20.2561 6.39446L20.3926 6.36446L20.5351 6.33746L20.6731 6.31047L20.8231 6.28347L20.9596 6.25947L21.1066 6.23398L21.2446 6.21298L21.3901 6.19048L21.5281 6.17098L21.6811 6.15148L21.8176 6.13349L21.9751 6.11549L22.1101 6.10049L22.2676 6.08549C22.4071 6.07049 22.5466 6.05849 22.6876 6.04949L22.8466 6.0375L22.9816 6.03L23.1466 6.021L23.2861 6.015L23.4361 6.009L23.5816 6.006L23.7301 6.003L24.0256 6V6.0015Z" fill="white"/>
</svg>